<mxfile host="app.diagrams.net" agent="Mozilla/5.0 (Linux; Android 10; K) AppleWebKit/537.36 (KHTML, like Gecko) SamsungBrowser/28.0 Chrome/130.0.0.0 Mobile Safari/537.36" version="28.0.6" pages="2">
  <diagram name="ToDo main logic " id="p2miaCa8XNRgx12W90hu">
    <mxGraphModel dx="537" dy="1082" grid="1" gridSize="10" guides="1" tooltips="1" connect="1" arrows="1" fold="1" page="1" pageScale="1" pageWidth="827" pageHeight="1169" background="#B8B8B8" math="0" shadow="0">
      <root>
        <mxCell id="0" />
        <mxCell id="1" parent="0" />
        <mxCell id="F7P97CC-9roM8lDs4JMB-1" value="Basic todos&lt;div&gt;Can be checked&amp;nbsp;&lt;/div&gt;" style="whiteSpace=wrap;html=1;labelBackgroundColor=none;fillColor=#09555B;strokeColor=#BAC8D3;fontColor=#EEEEEE;" parent="1" vertex="1">
          <mxGeometry x="320" y="270" width="160" height="60" as="geometry" />
        </mxCell>
        <mxCell id="eedVIyyWjkJHLJA6R_j0-2" value="Todo object creator&lt;div&gt;Have timers per to-do&lt;/div&gt;&lt;div&gt;&lt;br&gt;&lt;/div&gt;" style="rounded=0;whiteSpace=wrap;html=1;labelBackgroundColor=none;fillColor=#09555B;strokeColor=#BAC8D3;fontColor=#EEEEEE;" parent="1" vertex="1">
          <mxGeometry x="320" y="140" width="160" height="80" as="geometry" />
        </mxCell>
        <mxCell id="eedVIyyWjkJHLJA6R_j0-7" value="" style="edgeStyle=none;orthogonalLoop=1;jettySize=auto;html=1;rounded=0;fontSize=12;startSize=8;endSize=8;curved=1;entryX=0.5;entryY=0;entryDx=0;entryDy=0;labelBackgroundColor=none;fontColor=default;strokeColor=#0B4D6A;" parent="1" source="eedVIyyWjkJHLJA6R_j0-2" target="F7P97CC-9roM8lDs4JMB-1" edge="1">
          <mxGeometry width="140" relative="1" as="geometry">
            <mxPoint x="340" y="270" as="sourcePoint" />
            <mxPoint x="460" y="280" as="targetPoint" />
            <Array as="points" />
          </mxGeometry>
        </mxCell>
        <mxCell id="eedVIyyWjkJHLJA6R_j0-8" value="Project object creator&amp;nbsp;&lt;div&gt;Makes a project&lt;/div&gt;&lt;div&gt;Can create todos&lt;/div&gt;" style="rounded=0;whiteSpace=wrap;html=1;labelBackgroundColor=none;fillColor=#09555B;strokeColor=#BAC8D3;fontColor=#EEEEEE;" parent="1" vertex="1">
          <mxGeometry x="120" y="140" width="160" height="80" as="geometry" />
        </mxCell>
        <mxCell id="eedVIyyWjkJHLJA6R_j0-11" value="TRACKERS&amp;nbsp;&lt;div&gt;Most recent&lt;/div&gt;&lt;div&gt;Completed&lt;/div&gt;&lt;div&gt;Soon&lt;/div&gt;" style="rounded=0;whiteSpace=wrap;html=1;" parent="1" vertex="1">
          <mxGeometry x="120" y="20" width="160" height="80" as="geometry" />
        </mxCell>
        <mxCell id="eedVIyyWjkJHLJA6R_j0-13" value="" style="edgeStyle=none;orthogonalLoop=1;jettySize=auto;html=1;rounded=0;fontSize=12;startSize=8;endSize=8;curved=1;" parent="1" source="eedVIyyWjkJHLJA6R_j0-11" target="eedVIyyWjkJHLJA6R_j0-8" edge="1">
          <mxGeometry width="140" relative="1" as="geometry">
            <mxPoint x="250" y="140" as="sourcePoint" />
            <mxPoint x="390" y="140" as="targetPoint" />
            <Array as="points" />
          </mxGeometry>
        </mxCell>
        <mxCell id="eedVIyyWjkJHLJA6R_j0-15" value="" style="edgeStyle=none;orthogonalLoop=1;jettySize=auto;html=1;rounded=0;fontSize=12;startSize=8;endSize=8;curved=1;" parent="1" source="eedVIyyWjkJHLJA6R_j0-8" target="eedVIyyWjkJHLJA6R_j0-2" edge="1">
          <mxGeometry width="140" relative="1" as="geometry">
            <mxPoint x="300" y="170" as="sourcePoint" />
            <mxPoint x="440" y="170" as="targetPoint" />
            <Array as="points" />
          </mxGeometry>
        </mxCell>
      </root>
    </mxGraphModel>
  </diagram>
  <diagram id="ryO72WKTUOjQkfBHPh9A" name="ToDo object creator ">
    <mxGraphModel dx="784" dy="268" grid="0" gridSize="10" guides="1" tooltips="1" connect="1" arrows="1" fold="1" page="0" pageScale="1" pageWidth="827" pageHeight="1169" math="0" shadow="0">
      <root>
        <mxCell id="0" />
        <mxCell id="1" parent="0" />
      </root>
    </mxGraphModel>
  </diagram>
</mxfile>
